<svg width="40" height="40" viewBox="0 0 40 40" fill="none" xmlns="http://www.w3.org/2000/svg">
<path d="M6 10H34V12H6V10Z" fill="#404040"/>
<path fill-rule="evenodd" clip-rule="evenodd" d="M6 8H34V22H36V8C36 6.89543 35.1046 6 34 6H6C4.89543 6 4 6.89543 4 8V32C4 33.1046 4.89543 34 6 34H34C35.1046 34 36 33.1046 36 32V31H34V32H6V8Z" fill="#404040"/>
<path d="M31.8379 29V23.784H33.3099C33.8433 23.784 34.3046 23.8747 34.6939 24.056C35.0833 24.2373 35.3846 24.52 35.5979 24.904C35.8166 25.2827 35.9259 25.7707 35.9259 26.368C35.9259 26.9653 35.8193 27.4587 35.6059 27.848C35.3926 28.2373 35.0939 28.528 34.7099 28.72C34.3313 28.9067 33.8859 29 33.3739 29H31.8379ZM33.0139 28.048H33.2379C33.5366 28.048 33.7953 27.9947 34.0139 27.888C34.2379 27.7813 34.4113 27.6053 34.5339 27.36C34.6566 27.1147 34.7179 26.784 34.7179 26.368C34.7179 25.952 34.6566 25.6267 34.5339 25.392C34.4113 25.152 34.2379 24.984 34.0139 24.888C33.7953 24.7867 33.5366 24.736 33.2379 24.736H33.0139V28.048Z" fill="#404040"/>
<path d="M25.7442 29V23.784H27.0322L27.8722 26.104C27.9255 26.2533 27.9762 26.4107 28.0242 26.576C28.0722 26.7413 28.1228 26.904 28.1762 27.064H28.2082C28.2615 26.904 28.3095 26.7413 28.3522 26.576C28.4002 26.4107 28.4508 26.2533 28.5042 26.104L29.3282 23.784H30.6082V29H29.5362V27.088C29.5362 26.9173 29.5442 26.728 29.5602 26.52C29.5815 26.3067 29.6028 26.0933 29.6242 25.88C29.6508 25.6667 29.6722 25.4773 29.6882 25.312H29.6562L29.2322 26.552L28.4882 28.544H27.8402L27.0962 26.552L26.6802 25.312H26.6482C26.6695 25.4773 26.6908 25.6667 26.7122 25.88C26.7335 26.0933 26.7522 26.3067 26.7682 26.52C26.7895 26.728 26.8002 26.9173 26.8002 27.088V29H25.7442Z" fill="#404040"/>
<path d="M23.2639 29.096C22.8266 29.096 22.4239 28.9947 22.0559 28.792C21.6879 28.5893 21.3919 28.2907 21.1679 27.896C20.9493 27.496 20.8399 27.0053 20.8399 26.424C20.8399 25.848 20.9519 25.3573 21.1759 24.952C21.4053 24.5413 21.7066 24.2293 22.0799 24.016C22.4586 23.7973 22.8666 23.688 23.3039 23.688C23.6399 23.688 23.9413 23.7573 24.2079 23.896C24.4746 24.0293 24.6959 24.1867 24.8719 24.368L24.2479 25.12C24.1146 24.9973 23.9733 24.8987 23.8239 24.824C23.6799 24.744 23.5146 24.704 23.3279 24.704C23.0933 24.704 22.8773 24.7707 22.6799 24.904C22.4879 25.0373 22.3333 25.2293 22.2159 25.48C22.1039 25.7307 22.0479 26.032 22.0479 26.384C22.0479 26.9173 22.1626 27.3333 22.3919 27.632C22.6213 27.9307 22.9279 28.08 23.3119 28.08C23.5253 28.08 23.7146 28.032 23.8799 27.936C24.0506 27.84 24.1999 27.7253 24.3279 27.592L24.9519 28.328C24.5146 28.84 23.9519 29.096 23.2639 29.096Z" fill="#404040"/>
<path fill-rule="evenodd" clip-rule="evenodd" d="M10.0002 13.5859L14.4144 18.0002L10.0002 22.4144L8.58594 21.0002L11.5859 18.0002L8.58594 15.0002L10.0002 13.5859Z" fill="#00873D"/>
<path fill-rule="evenodd" clip-rule="evenodd" d="M19.0002 22.0002H15.0002V20.0002H19.0002V22.0002Z" fill="#00873D"/>
</svg>
